<?xml version="1.0" standalone="no"?>
<!DOCTYPE svg PUBLIC "-//W3C//DTD SVG 1.1//EN" "http://www.w3.org/Graphics/SVG/1.1/DTD/svg11.dtd">
<svg version="1.1" xmlns="http://www.w3.org/2000/svg" xmlns:xlink="http://www.w3.org/1999/xlink" x="0px" y="0px" viewBox="0 0 460.8 259.2" style="enable-background:new 0 0 460.8 259.2;" xml:space="preserve" width="460.79998779296875" height="259.20001220703125">
<style type="text/css">
	.st0{fill:url(#SVGID_1_);}
	.st1{fill:#161B35;}
</style>
<g id="logo-mns_xA0_Image_00000163047704278167679890000013538578613014534292_">
	
		<linearGradient id="SVGID_1_" gradientUnits="userSpaceOnUse" x1="-726.5961" y1="662.3883" x2="-725.0715" y2="662.3883" gradientTransform="matrix(254.871 0 0 -71.6362 185224.25 47557.207)">
		<stop offset="0" style="stop-color:#FF7001"/>
		<stop offset="1" style="stop-color:#FF5B31"/>
	</linearGradient>
	<path class="st0" d="M330.72,83.22c0,7.93,6.43,14.36,14.37,14.36l0,0h49.79c16.4,0,29.69,13.93,29.69,31.12   s-13.29,31.12-29.67,31.12h-81.4v-17.24h81.4v0.27c7.81-0.37,13.85-7.01,13.47-14.82c-0.35-7.29-6.18-13.13-13.47-13.47v0.25   h-52.67v-0.13c-17.38-1.58-30.18-16.96-28.6-34.33c1.38-15.19,13.41-27.22,28.6-28.6v-0.14h80.44v17.24h-77.74   C337.04,68.95,330.71,75.35,330.72,83.22z M298.72,132.06c-1.08,16.38-15.23,28.78-31.6,27.7c-14.88-0.98-26.72-12.83-27.7-27.7   l-0.04-0.01V79.39l0,0c-0.08-6.88-5.71-12.39-12.59-12.31c-6.77,0.07-12.24,5.54-12.31,12.31l0,0v81.41h-17.23V79.38h0.03   c1.06-16.38,15.2-28.79,31.58-27.73c14.89,0.97,26.76,12.83,27.73,27.73h0.03v52.67v0.01c0.08,6.88,5.71,12.39,12.59,12.31   c6.77-0.07,12.24-5.54,12.31-12.31v-0.01V51.62h17.25v80.44L298.72,132.06z M162.42,79.39L162.42,79.39   c0.08-6.88-5.44-12.51-12.31-12.59c-6.88-0.08-12.51,5.44-12.59,12.31c0,0.09,0,0.18,0,0.28l0,0v52.67h-0.04   c-1.06,16.38-15.2,28.79-31.58,27.73c-14.89-0.97-26.76-12.83-27.73-27.73h-0.04V79.39C78.06,72.51,72.42,67,65.55,67.08   c-6.77,0.08-12.24,5.54-12.31,12.31v81.4H36v-81.4h0.04c1.06-16.38,15.2-28.79,31.58-27.73c14.89,0.97,26.76,12.83,27.73,27.73   h0.04v52.67c0,6.88,5.58,12.45,12.45,12.45c6.87,0,12.45-5.57,12.45-12.45V79.39h0.04c1.06-16.38,15.2-28.79,31.58-27.73   c14.89,0.97,26.76,12.83,27.73,27.73h0.04v81.4h-17.24L162.42,79.39L162.42,79.39z"/>
</g>
<g id="Metz_Numeric_School">
	<g>
		<path class="st1" d="M53.33,206.52l-1.84-4.15l-0.84,4.15l-2.71,13.69h-4.43l6.07-29.34h0.48l8.06,15.85l2.4,5.31l2.4-5.31    l7.9-15.85h0.44l6.31,29.34h-4.39l-2.95-13.69l-0.88-4.15l-1.6,4.15l-7.11,13.69H60.4L53.33,206.52z"/>
		<path class="st1" d="M84.43,219.32c-1.46-0.86-2.54-2.02-3.23-3.47c-0.69-1.45-1.04-3.04-1.04-4.77c0-1.94,0.41-3.65,1.22-5.11    c0.81-1.46,1.94-2.59,3.37-3.37c1.44-0.78,3.06-1.18,4.87-1.18c2.82,0,4.92,0.78,6.29,2.34c1.37,1.56,2.06,3.75,2.06,6.57    c0,0.72-0.04,1.46-0.12,2.24H84.67c0.29,1.62,0.87,2.79,1.74,3.51c0.86,0.72,2.07,1.08,3.61,1.08c1.28,0,2.33-0.11,3.15-0.32    c0.82-0.21,1.58-0.5,2.28-0.88l1.32,3.07c-0.67,0.43-1.57,0.8-2.71,1.12c-1.14,0.32-2.53,0.48-4.15,0.48    C87.72,220.62,85.89,220.19,84.43,219.32z M93.77,209.56c0.03-1.65-0.33-2.81-1.08-3.49c-0.75-0.68-1.81-1.02-3.19-1.02    c-2.79,0-4.41,1.5-4.83,4.51H93.77z"/>
		<path class="st1" d="M104.07,205.41h-3.23v-3.51h3.23v-7.47l4.35-0.96v8.42h4.23v3.51h-4.23v14.81h-4.35V205.41z"/>
		<path class="st1" d="M122.48,206.76l1-1.44l-4.43,0.12h-3.15v-3.55h14.25l-8.26,13.49l-1,1.52l4.31-0.16l4.63-0.08v3.55h-15.69    L122.48,206.76z"/>
		<path class="st1" d="M148.63,201.22l0.12,3.19v15.81h-4.47v-29.38h0.56l17.25,19.24l-0.16-3.35v-15.85h4.47v29.34h-0.6    L148.63,201.22z"/>
		<path class="st1" d="M173.48,218.38c-0.94-1.49-1.42-3.57-1.42-6.23v-10.26h4.31v9.18c0,1.52,0.09,2.7,0.26,3.53    c0.17,0.84,0.52,1.46,1.04,1.86c0.52,0.4,1.3,0.6,2.34,0.6c0.74,0,1.46-0.21,2.16-0.64c0.69-0.42,1.26-1,1.7-1.74    c0.44-0.73,0.66-1.54,0.66-2.42v-10.38h4.27v18.32h-3.51l-0.48-2.67c-0.67,1.04-1.5,1.81-2.5,2.32s-2.2,0.76-3.61,0.76    C176.16,220.62,174.42,219.87,173.48,218.38z"/>
		<path class="st1" d="M194.54,201.89h4.31v3.31c0.58-1.25,1.44-2.2,2.57-2.83c1.13-0.64,2.43-0.96,3.89-0.96    c3.27,0.03,5.28,1.16,6.03,3.39c0.59-1.04,1.46-1.86,2.64-2.48c1.17-0.61,2.41-0.92,3.71-0.92c1.92,0,3.37,0.37,4.35,1.1    c0.98,0.73,1.64,1.77,1.98,3.11c0.33,1.34,0.5,3.15,0.5,5.41v9.18h-4.35V211c0-2.16-0.22-3.7-0.66-4.63    c-0.44-0.93-1.28-1.4-2.54-1.4c-1.68,0-2.95,0.57-3.81,1.7c-0.86,1.13-1.3,2.62-1.3,4.45v9.1h-4.31v-9.86    c0-1.41-0.05-2.46-0.16-3.15c-0.11-0.69-0.4-1.24-0.88-1.64s-1.25-0.6-2.32-0.6c-0.93,0-1.8,0.28-2.62,0.84    c-0.81,0.56-1.46,1.31-1.96,2.26c-0.49,0.95-0.74,1.96-0.74,3.05v9.1h-4.35V201.89z"/>
		<path class="st1" d="M233.22,219.32c-1.46-0.86-2.54-2.02-3.23-3.47c-0.69-1.45-1.04-3.04-1.04-4.77c0-1.94,0.41-3.65,1.22-5.11    c0.81-1.46,1.94-2.59,3.37-3.37c1.44-0.78,3.06-1.18,4.87-1.18c2.82,0,4.92,0.78,6.29,2.34c1.37,1.56,2.06,3.75,2.06,6.57    c0,0.72-0.04,1.46-0.12,2.24h-13.17c0.29,1.62,0.87,2.79,1.74,3.51c0.86,0.72,2.07,1.08,3.61,1.08c1.28,0,2.33-0.11,3.15-0.32    c0.83-0.21,1.58-0.5,2.28-0.88l1.32,3.07c-0.67,0.43-1.57,0.8-2.71,1.12s-2.53,0.48-4.15,0.48    C236.51,220.62,234.69,220.19,233.22,219.32z M242.57,209.56c0.03-1.65-0.33-2.81-1.08-3.49c-0.75-0.68-1.81-1.02-3.19-1.02    c-2.79,0-4.41,1.5-4.83,4.51H242.57z"/>
		<path class="st1" d="M251.15,201.89h4.31v3.59c0.43-1.22,1.12-2.21,2.08-2.95s2.05-1.12,3.27-1.12c0.85,0,1.44,0.08,1.76,0.24    l-0.6,4.35c-0.24-0.16-0.76-0.24-1.56-0.24c-1.25,0-2.39,0.4-3.41,1.2c-1.02,0.8-1.54,2.08-1.54,3.83v9.42h-4.31V201.89z"/>
		<path class="st1" d="M266.04,197.62c-0.56-0.56-0.84-1.25-0.84-2.08c0-0.75,0.28-1.38,0.84-1.92c0.56-0.53,1.25-0.8,2.08-0.8    c0.8,0,1.48,0.27,2.04,0.8c0.56,0.53,0.84,1.17,0.84,1.92c0,0.83-0.27,1.52-0.82,2.08c-0.54,0.56-1.23,0.84-2.06,0.84    S266.6,198.18,266.04,197.62z M265.92,201.89h4.47v18.32h-4.47V201.89z"/>
		<path class="st1" d="M280.03,219.44c-1.45-0.79-2.6-1.92-3.45-3.39c-0.85-1.48-1.28-3.21-1.28-5.21c0-1.89,0.39-3.55,1.18-4.97    c0.78-1.42,1.89-2.52,3.31-3.29c1.42-0.77,3.07-1.16,4.93-1.16c1.41,0,2.63,0.18,3.65,0.54s1.83,0.81,2.42,1.34l-1.92,3.47    c-1.12-1.12-2.38-1.68-3.79-1.68c-1.7,0-3,0.52-3.89,1.56c-0.89,1.04-1.34,2.42-1.34,4.15c0,1.97,0.46,3.5,1.38,4.59    c0.92,1.09,2.2,1.64,3.85,1.64c0.82,0,1.63-0.12,2.42-0.36c0.79-0.24,1.39-0.52,1.82-0.84l1.56,3.03    c-0.59,0.45-1.4,0.86-2.46,1.22s-2.22,0.54-3.49,0.54C283.11,220.62,281.48,220.22,280.03,219.44z"/>
		<path class="st1" d="M307.04,219.78c-1.57-0.56-2.7-1.18-3.39-1.88l2.12-3.79c0.56,0.51,1.43,1.03,2.61,1.58    c1.18,0.55,2.32,0.82,3.41,0.82c1.41,0,2.56-0.33,3.45-1c0.89-0.67,1.34-1.58,1.34-2.75c0-0.9-0.24-1.69-0.72-2.36    c-0.48-0.67-1.07-1.22-1.76-1.66c-0.69-0.44-1.68-0.98-2.95-1.62c-1.52-0.75-2.56-1.3-3.11-1.68c-2.58-1.73-3.87-4.12-3.87-7.19    c0-2.53,0.84-4.46,2.52-5.81s3.79-2.02,6.35-2.02c2.74,0,5.07,0.79,6.99,2.36l-2.12,3.63c-0.51-0.53-1.22-0.99-2.14-1.38    c-0.92-0.39-1.9-0.58-2.93-0.58c-1.33,0-2.38,0.3-3.13,0.9c-0.76,0.6-1.14,1.48-1.14,2.65c0,0.83,0.24,1.56,0.72,2.22    c0.48,0.65,1.08,1.22,1.82,1.7c0.73,0.48,1.72,1.06,2.97,1.76c1.2,0.67,2.12,1.19,2.75,1.58c0.64,0.39,1.24,0.85,1.8,1.38    c0.77,0.69,1.4,1.52,1.88,2.47c0.48,0.96,0.72,2.01,0.72,3.15c0,1.78-0.41,3.3-1.22,4.55c-0.81,1.25-1.93,2.2-3.35,2.83    c-1.42,0.64-3.04,0.96-4.85,0.96C310.2,220.62,308.61,220.34,307.04,219.78z"/>
		<path class="st1" d="M329.38,219.44c-1.45-0.79-2.6-1.92-3.45-3.39c-0.85-1.48-1.28-3.21-1.28-5.21c0-1.89,0.39-3.55,1.18-4.97    c0.78-1.42,1.89-2.52,3.31-3.29c1.42-0.77,3.07-1.16,4.93-1.16c1.41,0,2.63,0.18,3.65,0.54s1.83,0.81,2.42,1.34l-1.92,3.47    c-1.12-1.12-2.38-1.68-3.79-1.68c-1.7,0-3,0.52-3.89,1.56c-0.89,1.04-1.34,2.42-1.34,4.15c0,1.97,0.46,3.5,1.38,4.59    c0.92,1.09,2.2,1.64,3.85,1.64c0.82,0,1.63-0.12,2.42-0.36c0.79-0.24,1.39-0.52,1.82-0.84l1.56,3.03    c-0.59,0.45-1.4,0.86-2.46,1.22s-2.22,0.54-3.49,0.54C332.46,220.62,330.83,220.22,329.38,219.44z"/>
		<path class="st1" d="M344.53,190.88h4.19v11.02l-0.16,3.39c0.5-1.12,1.32-2.04,2.44-2.78c1.12-0.73,2.42-1.1,3.91-1.1    c1.89,0,3.34,0.39,4.35,1.18c1.01,0.79,1.69,1.88,2.04,3.29c0.35,1.41,0.52,3.25,0.52,5.51v8.82h-4.27v-8.86    c0-1.54-0.09-2.75-0.26-3.63c-0.17-0.88-0.52-1.54-1.04-2c-0.52-0.45-1.27-0.68-2.26-0.68c-0.8,0-1.6,0.24-2.42,0.72    c-0.81,0.48-1.48,1.18-2.02,2.1c-0.53,0.92-0.8,2-0.8,3.25v9.1h-4.23V190.88z"/>
		<path class="st1" d="M370.8,219.34c-1.46-0.85-2.59-2.01-3.39-3.47c-0.8-1.46-1.2-3.09-1.2-4.87c0-1.76,0.39-3.37,1.18-4.83    c0.78-1.46,1.91-2.62,3.37-3.47c1.46-0.85,3.15-1.28,5.07-1.28s3.6,0.43,5.05,1.28c1.45,0.85,2.57,2.01,3.35,3.47    c0.78,1.46,1.18,3.07,1.18,4.83c0,1.78-0.4,3.41-1.2,4.87c-0.8,1.46-1.92,2.62-3.37,3.47c-1.45,0.85-3.12,1.28-5.01,1.28    S372.26,220.19,370.8,219.34z M379.6,215.39c0.89-1.14,1.34-2.58,1.34-4.31c0-1.73-0.48-3.19-1.44-4.37    c-0.96-1.18-2.22-1.78-3.79-1.78c-1.52,0-2.74,0.59-3.65,1.76c-0.92,1.17-1.38,2.64-1.38,4.39c0,1.7,0.49,3.13,1.48,4.29    c0.98,1.16,2.25,1.74,3.79,1.74C377.49,217.1,378.71,216.53,379.6,215.39z"/>
		<path class="st1" d="M393.52,219.34c-1.46-0.85-2.59-2.01-3.39-3.47c-0.8-1.46-1.2-3.09-1.2-4.87c0-1.76,0.39-3.37,1.18-4.83    c0.78-1.46,1.91-2.62,3.37-3.47c1.46-0.85,3.15-1.28,5.07-1.28s3.6,0.43,5.05,1.28c1.45,0.85,2.57,2.01,3.35,3.47    c0.78,1.46,1.18,3.07,1.18,4.83c0,1.78-0.4,3.41-1.2,4.87c-0.8,1.46-1.92,2.62-3.37,3.47c-1.45,0.85-3.12,1.28-5.01,1.28    S394.98,220.19,393.52,219.34z M402.32,215.39c0.89-1.14,1.34-2.58,1.34-4.31c0-1.73-0.48-3.19-1.44-4.37    c-0.96-1.18-2.22-1.78-3.79-1.78c-1.52,0-2.74,0.59-3.65,1.76c-0.92,1.17-1.38,2.64-1.38,4.39c0,1.7,0.49,3.13,1.48,4.29    c0.98,1.16,2.25,1.74,3.79,1.74C400.21,217.1,401.43,216.53,402.32,215.39z"/>
		<path class="st1" d="M413.08,190.88h4.27v29.34h-4.27V190.88z"/>
	</g>
</g>
</svg>